<svg width="24" height="24" viewBox="0 0 24 24" fill="none" xmlns="http://www.w3.org/2000/svg">
<path d="M16.3271 7.8102C16.5384 7.60904 16.8195 7.49782 17.1113 7.50003C17.403 7.50224 17.6825 7.6177 17.8907 7.82204C18.099 8.02638 18.2197 8.30362 18.2274 8.59527C18.2351 8.88691 18.1292 9.17015 17.9321 9.3852L11.9471 16.8702C11.8441 16.9811 11.7199 17.07 11.5819 17.1318C11.4438 17.1935 11.2947 17.2268 11.1434 17.2296C10.9922 17.2324 10.842 17.2046 10.7017 17.1481C10.5614 17.0915 10.434 17.0072 10.3271 16.9002L6.35806 12.9312C6.24753 12.8282 6.15888 12.704 6.09739 12.566C6.0359 12.428 6.00284 12.279 6.00018 12.128C5.99751 11.9769 6.0253 11.8269 6.08188 11.6868C6.13846 11.5467 6.22268 11.4195 6.32951 11.3126C6.43633 11.2058 6.56358 11.1216 6.70367 11.065C6.84375 11.0084 6.99379 10.9807 7.14485 10.9833C7.2959 10.986 7.44487 11.019 7.58287 11.0805C7.72087 11.142 7.84507 11.2307 7.94806 11.3412L11.0891 14.4807L16.2986 7.8432C16.3079 7.83166 16.318 7.82064 16.3286 7.8102H16.3271Z" fill="#BABABA"/>
</svg>
