<svg width="50" height="50" viewBox="0 0 50 50" fill="none" xmlns="http://www.w3.org/2000/svg">
<g clip-path="url(#clip0_93_2277)">
<path d="M25.0024 47.2007L34.9076 44.6993C40.5614 40.0046 44.1626 32.9233 44.1626 25.0002C44.1626 12.7791 35.5971 2.55869 24.1419 0.0146484C10.7321 0.466895 0 11.4802 0 25.0001C0 31.9446 2.83203 38.2272 7.40352 42.7575L25.0024 47.2007Z" fill="#CBE2FF"/>
<path d="M43.6442 25C43.6442 33.1948 39.7008 40.4679 33.6086 45.0272L42.596 42.7576C47.1678 38.2273 50.0003 31.9447 50.0003 25C50.0003 11.1929 38.8074 0 25.0003 0C23.9237 0 22.863 0.0681641 21.8223 0.200195C34.1288 1.76152 43.6442 12.2695 43.6442 25Z" fill="#BED8FB"/>
<path d="M31.213 9.46792C31.213 8.19106 30.1779 7.15601 28.9011 7.15601H20.9341C17.9955 7.15601 15.6133 9.53823 15.6133 12.4768V18.3843H34.3837V12.5606C34.3837 11.2837 33.3486 10.2487 32.0718 10.2487H31.9938C31.8913 10.2487 31.7898 10.2285 31.695 10.1893C31.6003 10.15 31.5142 10.0925 31.4417 10.02C31.3692 9.94753 31.3117 9.86146 31.2724 9.76673C31.2332 9.67199 31.213 9.57046 31.213 9.46792Z" fill="#365E7D"/>
<path d="M32.0716 10.2488H31.9937C31.7866 10.2488 31.5879 10.1665 31.4415 10.0201C31.2951 9.87363 31.2128 9.67502 31.2128 9.46792C31.2128 8.19106 30.1777 7.15601 28.9009 7.15601H28.0273V18.3843H34.3834V12.5606C34.3835 11.2839 33.3483 10.2488 32.0716 10.2488Z" fill="#2B4D66"/>
<path d="M41.5081 36.3629C40.8831 35.7454 40.1203 35.2853 39.2825 35.0206L32.4572 32.8597L25.0014 32.5977L17.5424 32.8597L10.7171 35.0206C8.40811 35.7517 6.83887 37.8944 6.83887 40.3164V42.1811C11.2128 46.8029 17.3321 49.7561 24.1419 49.9857C31.7716 48.2911 38.1193 43.1912 41.5081 36.3629Z" fill="#4A80AA"/>
<path d="M43.1612 42.1809V40.3162C43.1612 38.6037 42.3761 37.0315 41.1002 35.9985C37.4761 43.3839 30.3168 48.72 21.8281 49.799C22.8655 49.9307 23.91 49.9978 24.9557 49.9999C25.9615 49.9986 26.9665 49.9405 27.9658 49.8259C33.9259 49.1216 39.2437 46.3206 43.1612 42.1809Z" fill="#407093"/>
<path d="M25.5656 49.6258C27.0782 46.6228 31.017 38.0958 29.8939 32.7694L25.0012 30.8652L20.1039 32.7695C18.9461 38.2603 23.1674 47.1521 24.565 49.8877C24.9003 49.8072 25.2339 49.7199 25.5656 49.6258Z" fill="#E4F6FF"/>
<path d="M28.144 47.2451L26.1603 39.4407H23.8393L21.8604 47.2238L24.3074 49.9481C24.9257 49.8065 25.5384 49.6417 26.1443 49.4542L28.144 47.2451Z" fill="#E28086"/>
<path d="M24.3456 49.9907C24.5482 49.9959 24.7513 49.9996 24.9551 50C25.1909 49.9996 25.426 49.9955 25.6604 49.9889L26.9208 48.5964C25.921 48.9472 24.8997 49.2336 23.8633 49.4538L24.3456 49.9907Z" fill="#DD636E"/>
<path d="M29.1768 32.0492V27.6482H20.8193V32.0492C20.8193 34.357 24.998 36.8779 24.998 36.8779C24.998 36.8779 29.1768 34.357 29.1768 32.0492Z" fill="#FFDDCE"/>
<path d="M34.3837 17.6093H32.7861C31.8977 17.6093 31.1774 16.889 31.1774 16.0006V15.1202C31.1774 13.9629 30.0451 13.1446 28.9463 13.5078C26.3835 14.3549 23.6163 14.3551 21.0534 13.5084L21.0504 13.5074C19.9516 13.1444 18.8194 13.9627 18.8194 15.1199V16.0007C18.8194 16.8891 18.0992 17.6094 17.2107 17.6094H15.6133V20.24C15.6133 20.9122 16.1582 21.4572 16.8305 21.4572C17.0426 21.4572 17.2151 21.6233 17.2285 21.835C17.4852 25.9042 20.8647 29.1255 24.9985 29.1255C29.1323 29.1255 32.5119 25.9042 32.7686 21.835C32.7819 21.6234 32.9545 21.4572 33.1666 21.4572C33.8388 21.4572 34.3838 20.9123 34.3838 20.24V17.6093H34.3837Z" fill="#FFDDCE"/>
<path d="M32.7863 17.6092C31.8979 17.6092 31.1776 16.889 31.1776 16.0005V15.1201C31.1776 13.9628 30.0453 13.1445 28.9465 13.5077C28.6437 13.6074 28.3373 13.6956 28.0278 13.7721V22.4608C27.9851 25.2877 26.436 27.7481 24.1484 29.0778C24.4308 29.1089 24.7146 29.1248 24.9986 29.1252C29.1324 29.1252 32.512 25.9039 32.7687 21.8348C32.782 21.6232 32.9546 21.4569 33.1667 21.4569C33.8389 21.4569 34.3839 20.912 34.3839 20.2398V17.6091L32.7863 17.6092Z" fill="#FFCBBE"/>
<path d="M20.8201 30.8652L17.543 33.528L20.9797 37.7773C21.1815 37.9738 21.449 38.0885 21.7305 38.0992C22.012 38.11 22.2874 38.0159 22.5036 37.8354L25.0881 35.6765L20.8201 30.8652ZM29.1791 30.8652L25.0881 35.6765L27.5172 37.7534C27.732 37.9371 28.0074 38.0343 28.2899 38.0261C28.5724 38.0179 28.8418 37.9049 29.0456 37.7092L32.4577 33.528L29.1791 30.8652Z" fill="#F4FBFF"/>
<path d="M20.8202 30.8652L16.01 33.2284C15.9231 33.2711 15.8455 33.3308 15.7819 33.4038C15.7182 33.4769 15.6698 33.5619 15.6394 33.6539C15.6091 33.7459 15.5973 33.843 15.6049 33.9396C15.6126 34.0362 15.6394 34.1303 15.6838 34.2164L16.6261 36.0436C16.7452 36.2743 16.7877 36.5368 16.7477 36.7933C16.7076 37.0498 16.587 37.2869 16.4033 37.4703C16.2078 37.6654 16.0124 37.8605 15.817 38.0556C15.491 38.381 15.3739 38.8617 15.5175 39.2994C16.6553 42.7679 22.1312 48.0717 24.2036 49.9906C24.3429 49.9943 24.4826 49.9969 24.6225 49.9984C23.1197 47.0753 17.7942 35.9696 20.8202 30.8652ZM33.5961 37.4702C33.4123 37.2868 33.2917 37.0497 33.2517 36.7932C33.2116 36.5367 33.2542 36.2742 33.3732 36.0435L34.3156 34.2163C34.36 34.1302 34.3868 34.0361 34.3944 33.9395C34.402 33.8429 34.3903 33.7458 34.3599 33.6538C34.3295 33.5618 34.2811 33.4768 34.2175 33.4037C34.1539 33.3307 34.0763 33.271 33.9893 33.2283L29.1792 30.8652C32.2044 35.9683 26.8826 47.0692 25.3781 49.9961C25.5195 49.9937 25.6606 49.9901 25.8014 49.9855C27.8781 48.0621 33.3452 42.7647 34.4819 39.2995C34.6255 38.8618 34.5084 38.3811 34.1824 38.0557L33.5961 37.4702Z" fill="#365E7D"/>
<path d="M25.0879 35.6765L22.543 37.8019L23.8396 39.4407H26.1606L27.4574 37.7052L25.0879 35.6765Z" fill="#DD636E"/>
</g>
<defs>
<clipPath id="clip0_93_2277">
<rect width="50" height="50" fill="white"/>
</clipPath>
</defs>
</svg>
