<svg width="24" height="14" viewBox="0 0 24 14" fill="none" xmlns="http://www.w3.org/2000/svg">
<path d="M22.7047 0.0383301H2.12005C1.43295 0.0383301 0.875977 0.5953 0.875977 1.2824C0.875977 1.9695 1.43295 2.52647 2.12005 2.52647H22.7047C23.3918 2.52647 23.9487 1.9695 23.9487 1.2824C23.9487 0.5953 23.3918 0.0383301 22.7047 0.0383301Z" fill="#CAE6FE"/>
<path d="M22.7047 5.42871H2.12005C1.43295 5.42871 0.875977 5.98568 0.875977 6.67278C0.875977 7.35988 1.43295 7.91685 2.12005 7.91685H22.7047C23.3918 7.91685 23.9487 7.35988 23.9487 6.67278C23.9487 5.98568 23.3918 5.42871 22.7047 5.42871Z" fill="#CAE6FE"/>
<path d="M22.7047 10.8187H2.12005C1.43295 10.8187 0.875977 11.3757 0.875977 12.0628C0.875977 12.7499 1.43295 13.3069 2.12005 13.3069H22.7047C23.3918 13.3069 23.9487 12.7499 23.9487 12.0628C23.9487 11.3757 23.3918 10.8187 22.7047 10.8187Z" fill="#CAE6FE"/>
</svg>
