<svg width="49" height="134" viewBox="0 0 49 134" fill="none" xmlns="http://www.w3.org/2000/svg">
<path d="M11.8863 122.471L11.6489 126.748L15.1192 126.824L15.5439 122.331L11.8863 122.471Z" fill="#FBA691"/>
<path d="M13.0253 126.147C13.0253 126.147 14.8119 125.742 15.3007 125.771C15.7894 125.799 18.9265 129.587 20.0214 129.844C22.0068 130.311 21.8911 133.435 20.6678 133.544C17.1301 133.859 11.1632 132.143 11.1632 132.143C11.1632 132.143 10.7601 128.114 11.0492 126.865C11.3379 125.617 12.0279 126.48 13.0253 126.147Z" fill="#45A9EA"/>
<path d="M15.811 129.679C15.7474 129.69 15.68 129.677 15.6237 129.636C15.5147 129.556 15.491 129.404 15.5703 129.295C15.5965 129.259 16.2281 128.4 16.9805 128.121C17.9808 127.749 18.659 128.367 18.6879 128.393C18.7866 128.485 18.7917 128.64 18.6997 128.738C18.6077 128.837 18.4534 128.842 18.3547 128.75C18.336 128.734 17.8626 128.315 17.15 128.579C16.5375 128.806 15.9704 129.575 15.9649 129.583C15.9263 129.635 15.8704 129.668 15.811 129.679Z" fill="#FEFDFF"/>
<path d="M15.1642 128.915C15.1011 128.927 15.0333 128.913 14.9769 128.872C14.8679 128.793 14.8438 128.64 14.9235 128.531C14.9502 128.495 15.5817 127.636 16.3337 127.357C17.3349 126.984 18.0127 127.602 18.0411 127.629C18.1398 127.721 18.1449 127.876 18.0529 127.974C17.9614 128.073 17.8067 128.078 17.7079 127.986C17.6892 127.969 17.2153 127.551 16.5032 127.814C15.8878 128.043 15.3236 128.811 15.3181 128.818C15.2795 128.871 15.224 128.904 15.1642 128.915Z" fill="#FEFDFF"/>
<path d="M16.7287 130.343C16.6655 130.355 16.5977 130.341 16.5413 130.3C16.4324 130.221 16.4082 130.068 16.4879 129.96C16.5146 129.923 17.1462 129.064 17.8982 128.785C18.8993 128.412 19.5771 129.031 19.6055 129.057C19.7038 129.149 19.7094 129.303 19.6174 129.402C19.5258 129.5 19.3711 129.506 19.2724 129.414C19.2537 129.397 18.7798 128.978 18.0677 129.242C17.4522 129.47 16.8881 130.238 16.8825 130.246C16.8444 130.299 16.7884 130.332 16.7287 130.343Z" fill="#FEFDFF"/>
<path d="M24.6472 70.348C24.6472 70.348 24.5752 71.3525 24.4437 73.0184C24.4098 73.4592 24.3717 73.9467 24.3293 74.4765C23.88 80.0674 23.0111 90.1768 22.0616 97.3488C20.7306 107.403 16.5385 123.926 16.5385 123.926L12.2107 123.777L11.7826 123.76L10.7568 123.726C10.7568 123.726 11.4774 113.274 12.3972 104.199C13.0034 98.2135 13.3637 84.0518 13.5375 75.1081C13.6265 70.4963 13.6689 67.2706 13.6689 67.2706L24.6472 70.348Z" fill="#2A365C"/>
<path d="M24.6474 70.348C24.6474 70.348 24.5753 71.3525 24.4439 73.0184C24.41 73.4592 24.3718 73.9467 24.3295 74.4765C22.333 74.8495 16.8438 75.1081 13.5376 75.1081C13.6266 70.4963 13.669 67.2706 13.669 67.2706L24.6474 70.348Z" fill="#16162F"/>
<path d="M16.0007 72.9455C15.9965 73.2889 15.5981 105.872 12.2113 123.777L11.7832 123.76C15.1742 105.91 15.5726 73.2804 15.5769 72.9413L16.0007 72.9455Z" fill="#16162F"/>
<path d="M39.027 123.292L38.8854 127.151L35.358 126.964L35.2778 122.867L39.027 123.292Z" fill="#FBA691"/>
<path d="M37.9859 126.973C37.9859 126.973 38.7544 125.972 39.3525 126.024C39.9506 126.076 44.5136 129.816 46.0913 130.142C47.6689 130.469 47.3443 131.629 47.0454 132.22C46.7466 132.811 34.4296 131.809 34.4296 131.809C34.4296 131.809 34.1452 128.134 34.5649 127.018C34.9836 125.901 36.7448 127.221 37.9859 126.973Z" fill="#45A9EA"/>
<path d="M40.4998 129.573C40.4434 129.589 40.3811 129.583 40.3268 129.55C40.2213 129.488 40.1865 129.353 40.2484 129.247C40.2692 129.212 40.7647 128.38 41.42 128.062C42.2915 127.638 42.9587 128.137 42.9866 128.158C43.0837 128.232 43.1023 128.372 43.0277 128.469C42.9536 128.566 42.8145 128.584 42.7171 128.51C42.6988 128.496 42.2343 128.16 41.6133 128.461C41.0796 128.72 40.6346 129.465 40.6303 129.472C40.6002 129.523 40.5527 129.558 40.4998 129.573Z" fill="#FEFDFF"/>
<path d="M39.8486 128.939C39.7926 128.955 39.7299 128.949 39.6756 128.917C39.5701 128.854 39.5349 128.719 39.5972 128.613C39.618 128.578 40.1135 127.746 40.7684 127.428C41.6407 127.004 42.3075 127.503 42.3355 127.524C42.4325 127.599 42.4512 127.738 42.3766 127.835C42.3024 127.932 42.1629 127.951 42.0659 127.876C42.0476 127.863 41.5827 127.526 40.9621 127.827C40.4259 128.087 39.9834 128.831 39.9791 128.839C39.949 128.89 39.9016 128.924 39.8486 128.939Z" fill="#FEFDFF"/>
<path d="M41.3876 130.093C41.3313 130.109 41.269 130.102 41.2147 130.071C41.1092 130.008 41.074 129.873 41.1363 129.767C41.1571 129.732 41.6526 128.9 42.3079 128.581C43.1802 128.157 43.847 128.656 43.8749 128.678C43.972 128.752 43.9902 128.891 43.916 128.988C43.8419 129.085 43.7024 129.104 43.6053 129.029C43.5871 129.016 43.1217 128.679 42.5016 128.98C41.9654 129.241 41.5229 129.984 41.5186 129.992C41.4881 130.043 41.4406 130.078 41.3876 130.093Z" fill="#FEFDFF"/>
<path d="M39.6691 124.299L36.0835 124.032L35.6563 124.002L34.7852 123.937C34.7852 123.937 32.5828 102.974 31.8978 97.3898C31.3022 92.5386 28.5216 81.6391 26.7159 74.8571C26.2043 72.9318 25.7707 71.3385 25.4854 70.3089C25.2675 69.4993 25.1387 69.039 25.1387 69.039L37.1254 67.8784C37.1254 67.8784 37.1589 68.1416 37.214 68.6155C37.3306 69.5854 37.5548 71.4436 37.8257 73.7792C38.5742 80.1364 39.7127 90.0297 40.154 95.0657C41.2849 108.034 39.6691 124.299 39.6691 124.299Z" fill="#2A365C"/>
<path d="M37.8261 73.7797L26.7163 74.8567C26.2047 72.9315 25.7711 71.3382 25.4858 70.3086L37.2144 68.6156C37.331 69.5858 37.5557 71.4441 37.8261 73.7797Z" fill="#16162F"/>
<path d="M36.0841 124.032L35.6568 124.002C35.4487 117.52 34.8124 101.33 33.5137 94.4663C31.8813 85.8146 28.1279 73.2167 28.0894 73.0895L28.4975 72.9683C28.5361 73.0958 32.2959 85.7154 33.9303 94.3888C35.2376 101.295 35.8789 117.562 36.0841 124.032Z" fill="#16162F"/>
<path d="M36.4456 37.9355C36.6808 39.5022 36.9237 41.0052 37.1356 42.2641C37.4764 44.2945 37.7341 45.6894 37.7341 45.6894L39.5733 50.9603C40.2036 52.7631 42.2963 53.5731 43.9765 52.6647C44.0054 52.6507 44.038 52.6384 44.0634 52.6185C44.6768 52.1463 45.1647 51.2295 45.6178 49.072C45.6178 49.072 45.6178 49.072 45.6178 49.0711C45.6322 48.8846 47.262 40.8412 47.2768 37.9461L43.5505 37.5922C43.3907 37.2437 42.5913 41.3812 42.4141 40.9993C42.3014 40.753 42.184 40.4991 42.0657 40.2422C41.8678 39.8154 41.6622 39.3741 41.4536 38.9236C41.1569 38.2848 40.8509 37.6261 40.5415 36.9623C38.2636 32.0606 35.8377 26.8737 35.8377 26.8737C35.051 27.3132 35.7017 32.9461 36.4456 37.9355Z" fill="#FBA691"/>
<path d="M36.4463 37.9351C36.6811 39.5021 36.924 41.0052 37.1355 42.2641C39.2998 41.4507 40.6855 39.9807 41.4535 38.9235C41.1568 38.2843 40.8508 37.6256 40.5418 36.9623L36.4463 37.9351Z" fill="#FD857D"/>
<path d="M41.3946 47.3658C41.4073 47.3666 41.4184 47.3658 41.4311 47.3653C41.5464 47.3586 41.6417 47.2687 41.6523 47.1509C41.9033 44.3376 42.2059 42.2521 42.4149 40.9996C42.3017 40.7533 42.1839 40.4994 42.0656 40.2426C41.8651 41.3476 41.4849 43.6988 41.1801 47.1085C41.1687 47.2386 41.2641 47.353 41.3946 47.3658Z" fill="#FD857D"/>
<path d="M42.9305 36.6621C42.9305 36.6621 42.4761 37.2725 41.6597 37.9617C40.672 38.8002 38.8261 39.8683 36.947 39.9985C35.1435 34.338 34.5759 27.1987 35.1218 25.3099C36.0522 26.3272 40.789 31.9885 42.9305 36.6621Z" fill="#F7D188"/>
<path d="M41.6589 36.7596L41.7183 36.7948L42.2201 37.0826L42.3384 36.8715L46.6967 36.752C47.065 36.7431 47.3673 36.4578 47.3999 36.0907L48.201 26.9821C48.2048 26.9363 48.2057 26.891 48.201 26.8486L48.368 26.5921L47.8424 26.2903L47.8217 26.2793L47.8068 26.2708C47.7025 26.2183 47.5843 26.189 47.4588 26.1928L42.8369 26.3196C42.4685 26.3285 42.1663 26.6137 42.1354 26.9804L41.3342 36.089C41.3105 36.3663 41.4449 36.6176 41.6589 36.7596Z" fill="#2A365C"/>
<path d="M42.6064 37.1805L47.2266 37.0546C47.595 37.0444 47.8972 36.76 47.9294 36.3929L48.7301 27.2834C48.7683 26.8515 48.4211 26.4832 47.9879 26.495L43.3677 26.6209C42.9993 26.6311 42.6971 26.9155 42.6649 27.2826L41.8642 36.3921C41.8261 36.8236 42.1728 37.1924 42.6064 37.1805Z" fill="#445279"/>
<path d="M48.3791 31.2722C48.8072 31.3214 48.452 31.95 48.7348 32.8312C49.0866 33.929 47.2639 38.4399 47.2639 38.4399C45.4942 39.244 43.3702 37.8329 43.3702 37.8329C43.3702 37.8329 42.9145 34.3961 43.3393 32.8431C43.3393 32.8431 43.5902 31.4553 43.664 30.641C43.7373 29.8319 44.098 28.904 44.354 29.0685C44.61 29.2329 44.6736 29.8942 44.6791 30.396C44.6842 30.8979 44.7855 31.8576 44.7855 31.8576C44.7855 31.8576 44.9233 30.672 44.9445 30.0184C44.9657 29.3652 44.9152 28.3267 45.3133 28.1228C45.8139 27.8664 45.9563 29.2579 46.0207 29.7623C46.0851 30.2668 45.8868 31.8347 45.8868 31.8347C45.8868 31.8347 46.2284 30.0756 46.1424 29.5546C46.0559 29.0333 45.9482 28.016 45.9741 27.5849C45.9999 27.1538 46.5535 27.225 46.7201 27.7557C46.8867 28.2864 47.0774 29.3529 47.1232 29.7102C47.1817 30.1659 47.0702 31.6833 47.0702 31.6833C47.0702 31.6833 47.2877 29.9552 47.2737 29.4987C47.2622 29.1278 47.1478 28.3949 47.2796 27.9677C47.4119 27.5404 47.9243 27.459 48.0879 28.5814C48.2511 29.7039 48.2787 29.8365 48.2469 30.1727C48.1914 30.7648 48.0901 31.421 48.1575 31.6647C48.1914 31.7864 48.3308 31.788 48.3308 31.788L48.3791 31.2722Z" fill="#FBA691"/>
<path d="M39.0658 68.8046C30.1369 71.6487 21.06 72.1896 11.834 70.45C11.6564 67.9381 11.1905 59.6929 10.8383 51.0039C10.8264 50.7157 10.8141 50.4275 10.8031 50.1388C10.7946 49.9074 10.7862 49.6764 10.7764 49.4437C10.7696 49.2771 10.7624 49.1092 10.7569 48.9414C10.7535 48.8651 10.751 48.7888 10.7484 48.712C10.7391 48.4853 10.7327 48.2534 10.7234 48.0279C10.7154 47.8384 10.706 47.6494 10.6997 47.4599C10.6993 47.4341 10.6976 47.4074 10.6971 47.3815C10.6967 47.3578 10.6955 47.3353 10.695 47.3116C10.6861 47.1128 10.6806 46.9123 10.673 46.7156C10.6717 46.677 10.6696 46.638 10.6683 46.6003C10.6615 46.3612 10.6514 46.1226 10.6446 45.8848C10.6378 45.7203 10.6323 45.5588 10.6259 45.3973C10.6242 45.3316 10.6221 45.2659 10.6196 45.2002C10.6107 45.0176 10.6047 44.8336 10.6005 44.6526C10.5984 44.5975 10.5971 44.5428 10.5958 44.4877C10.5912 44.3207 10.5865 44.1529 10.5819 43.985C10.5797 43.9138 10.5785 43.843 10.5763 43.7718C10.5696 43.5327 10.5581 43.2953 10.556 43.0601C10.5462 42.8287 10.5403 42.6015 10.5352 42.3755C10.5293 42.2238 10.5246 42.0733 10.5195 41.9224C10.5094 41.5939 10.5017 41.2688 10.495 40.9471C10.3042 33.5034 10.3267 27.3962 10.8603 26.5604C12.0997 24.6233 18.0963 21.5052 19.9062 20.0632L19.9241 20.3608C19.9241 20.3608 21.2016 21.8549 22.5271 21.6574C23.7309 21.4823 24.5723 20.0251 24.7126 19.761C25.6938 20.368 27.9302 21.3073 30.1042 22.3242C32.2779 23.3372 34.3892 24.4206 35.1212 25.3091C35.7477 26.0746 36.4484 32.0292 37.0863 39.3402L37.0876 39.3639C37.099 39.5004 37.1117 39.6365 37.1232 39.7725L37.1245 39.7929C37.1308 39.8984 37.1414 40.0031 37.1524 40.1125C37.1575 40.179 37.1626 40.2447 37.169 40.3121C37.1813 40.4613 37.1957 40.6126 37.2071 40.764C37.2249 40.9895 37.2461 41.2158 37.2643 41.4464C37.2817 41.6804 37.3004 41.9178 37.3224 42.1556C37.3279 42.2263 37.333 42.2971 37.3394 42.3679C37.3525 42.5353 37.3661 42.7028 37.3813 42.8689C37.3856 42.9236 37.389 42.9783 37.3936 43.0334C37.4076 43.2135 37.422 43.3971 37.4364 43.5798L37.4517 43.776C37.4636 43.9371 37.4767 44.0982 37.4898 44.2622C37.5072 44.4996 37.5259 44.7378 37.5449 44.976C37.5471 45.0137 37.5504 45.0523 37.5538 45.0909C37.5678 45.2876 37.5831 45.4872 37.5983 45.6856C37.5996 45.7093 37.6022 45.7318 37.6034 45.7555C37.6051 45.7814 37.6077 45.8081 37.6094 45.8339C37.6251 46.0226 37.6386 46.2116 37.6535 46.4007C37.6713 46.6262 37.6895 46.8525 37.7035 47.0835C37.709 47.1598 37.7149 47.2361 37.7204 47.312C37.7336 47.4794 37.7458 47.6468 37.7581 47.8134C37.7755 48.0444 37.7925 48.275 37.8086 48.5069C37.8294 48.7947 37.8497 49.0825 37.8705 49.3703C38.4864 58.0178 38.9471 66.2668 39.0658 68.8046Z" fill="#F7D188"/>
<path d="M37.3398 42.3679L10.5818 43.9845C10.5797 43.9133 10.5785 43.8425 10.5763 43.7713C10.5695 43.5322 10.5581 43.2949 10.556 43.0596C10.5462 42.8282 10.5403 42.601 10.5352 42.3751C10.5293 42.2233 10.5246 42.0728 10.5195 41.9219L37.169 40.3116C37.1812 40.4608 37.1957 40.6122 37.2071 40.7635C37.2249 40.989 37.2461 41.2153 37.2643 41.4459C37.2817 41.6799 37.3004 41.9173 37.3224 42.1551C37.3279 42.2263 37.3334 42.2971 37.3398 42.3679Z" fill="#360B92"/>
<path d="M37.6094 45.8339L10.6997 47.4598C10.6993 47.434 10.6976 47.4073 10.6972 47.3814C10.6968 47.3577 10.6955 47.3352 10.6951 47.3115C10.6862 47.1127 10.6807 46.9122 10.673 46.7155C10.6718 46.6769 10.6696 46.6379 10.6684 46.6002C10.6616 46.3612 10.6514 46.1225 10.6446 45.8847C10.6378 45.7203 10.6323 45.5588 10.626 45.3973L37.4517 43.7764C37.4636 43.9374 37.4767 44.0985 37.4899 44.2626C37.5073 44.4999 37.5259 44.7381 37.545 44.9764C37.5471 45.0141 37.5505 45.0527 37.5539 45.0912C37.5679 45.2879 37.5831 45.4876 37.5984 45.6859C37.5997 45.7097 37.6022 45.7321 37.6035 45.7559C37.6052 45.7813 37.6081 45.808 37.6094 45.8339Z" fill="#360B92"/>
<path d="M37.8704 49.3707L10.8382 51.0039C10.8264 50.7157 10.8141 50.4274 10.803 50.1388C10.7946 49.9073 10.7861 49.6763 10.7763 49.4436C10.7696 49.277 10.7623 49.1092 10.7568 48.9413L37.7203 47.3124C37.7335 47.4798 37.7458 47.6472 37.7581 47.8138C37.7755 48.0448 37.7924 48.2754 37.8085 48.5073C37.8293 48.7951 37.8501 49.0829 37.8704 49.3707Z" fill="#360B92"/>
<path d="M34.1206 35.7114C34.9645 36.7189 36.2485 39.0401 36.8266 40.1137C36.9055 40.2612 36.9712 40.385 37.0212 40.4787C37.0869 40.602 37.1233 40.6733 37.1263 40.6788C37.145 40.7156 37.1725 40.744 37.206 40.7635C37.1882 40.5452 37.1695 40.3282 37.1509 40.1116C37.1424 40.0044 37.1322 39.8971 37.1233 39.7916L37.1221 39.7742C37.0038 39.5555 36.8639 39.2986 36.7079 39.0168C36.0535 37.8388 35.1248 36.2539 34.4445 35.4409C34.3699 35.3515 34.2368 35.3401 34.1469 35.4147C34.0575 35.4893 34.0469 35.6224 34.1206 35.7114Z" fill="#360B92"/>
<path d="M16.2254 28.5792C16.2275 28.5792 16.23 28.5788 16.2322 28.5788C19.8364 28.2456 22.5318 26.5752 24.1582 25.2323C25.9202 23.7776 26.8189 22.4199 26.8562 22.3627C26.9202 22.2652 26.8926 22.1346 26.7955 22.0711C26.6976 22.0071 26.5675 22.0346 26.5035 22.1317C26.4679 22.1855 22.8811 27.5407 16.1936 28.1592C16.0775 28.1698 15.9922 28.2724 16.0028 28.3885C16.0134 28.5021 16.1122 28.586 16.2254 28.5792Z" fill="#360B92"/>
<path d="M31.8035 64.2551C31.9133 64.2484 32.001 64.1577 32.0015 64.0458C32.0019 63.9292 31.9082 63.8342 31.7916 63.8338C25.8434 63.8033 22.1282 61.0146 20.0588 58.6808C17.8089 56.143 16.9582 53.5761 16.9497 53.5502C16.9137 53.4396 16.795 53.3785 16.6839 53.415C16.5733 53.451 16.5127 53.5697 16.5483 53.6803C16.583 53.788 17.4287 56.3444 19.7316 58.9474C21.859 61.3516 25.6777 64.2242 31.7895 64.2556C31.7946 64.2556 31.7989 64.2556 31.8035 64.2551Z" fill="#360B92"/>
<path d="M26.78 60.7272C26.8729 60.7217 26.9542 60.6548 26.9737 60.5594C26.9975 60.4454 26.9237 60.3339 26.8097 60.3101C21.5774 59.2293 20.324 54.9897 20.3117 54.9473C20.2803 54.8354 20.1633 54.7697 20.0519 54.8015C19.94 54.8328 19.8747 54.949 19.9056 55.0613C19.9188 55.1079 20.2358 56.2147 21.2366 57.4715C22.1577 58.6282 23.8574 60.1313 26.7241 60.7234C26.7436 60.7272 26.7622 60.7285 26.78 60.7272Z" fill="#360B92"/>
<path d="M13.0942 36.2904C12.3783 37.3921 11.3826 39.851 10.938 40.9865C10.8778 41.1421 10.8274 41.2731 10.7892 41.3727C10.7388 41.5024 10.7108 41.5783 10.7091 41.5834C10.679 41.6643 10.6053 41.7152 10.5239 41.7203L10.5196 41.7207C10.5154 41.6135 10.512 41.5058 10.5086 41.3994C10.4463 41.4032 10.3844 41.407 10.3242 41.4083C10.3488 41.3447 10.4082 41.1887 10.4929 40.9692C10.5997 40.6932 10.7481 40.3147 10.9236 39.8836C11.4314 38.6349 12.1626 36.9496 12.7395 36.0611C12.8035 35.9632 12.9336 35.9352 13.0315 35.9992C13.1303 36.0624 13.157 36.1938 13.0942 36.2904Z" fill="#45A9EA"/>
<path d="M15.1059 7.07574C15.1059 7.07574 14.5074 4.43119 15.1008 3.48298C15.6942 2.53477 16.7683 2.74332 17.8356 1.6298C18.903 0.515861 22.4042 1.30808 23.8945 0.944396C24.7143 0.744327 25.6031 0.802399 26.4043 0.588767C27.5504 0.283577 28.2405 1.39879 28.0298 2.55046C27.8959 3.28334 27.5983 4.38965 26.5704 4.7368C26.5704 4.7368 16.4458 3.51604 15.1059 7.07574Z" fill="#2A365C"/>
<path d="M15.0061 9.22264C15.2397 13.0909 17.7825 15.6125 21.6503 15.379C25.5186 15.1454 28.0411 12.1164 27.8071 8.24815C27.5736 4.3803 25.1058 1.58781 21.2379 1.82179C16.5986 2.10197 14.7721 5.35436 15.0061 9.22264Z" fill="#2A365C"/>
<path d="M15.9759 10.8355C15.9759 10.8355 14.8145 9.46763 14.0871 10.7007C13.3598 11.9337 14.7009 15.3654 16.6058 14.3926L15.9759 10.8355Z" fill="#FD857D"/>
<path d="M16.1135 13.3372C16.041 13.3414 15.9719 13.2977 15.9469 13.2261C15.5786 12.1639 14.4328 11.7934 14.4214 11.79C14.3341 11.7629 14.2853 11.6696 14.3129 11.5827C14.34 11.4954 14.4328 11.4467 14.5197 11.4738C14.5731 11.4903 15.8359 11.8947 16.2602 13.1176C16.2903 13.2041 16.2445 13.2982 16.158 13.3283C16.1432 13.3333 16.1283 13.3363 16.1135 13.3372Z" fill="#F05B56"/>
<path d="M14.95 12.8611C14.9195 12.8628 14.8877 12.8565 14.8589 12.8404C14.7792 12.7954 14.7508 12.6946 14.7957 12.6149C14.8034 12.6017 14.9831 12.2876 15.3862 12.077C15.4667 12.0346 15.5672 12.066 15.6096 12.1473C15.652 12.2283 15.6206 12.3283 15.5392 12.3707C15.2277 12.5335 15.0857 12.7747 15.0844 12.7772C15.056 12.8281 15.0043 12.8578 14.95 12.8611Z" fill="#F05B56"/>
<path d="M27.0516 10.1666C27.0516 10.1666 28.0396 8.66863 28.9103 9.80546C29.7809 10.9423 28.8628 14.51 26.8545 13.7738L27.0516 10.1666Z" fill="#FD857D"/>
<path d="M27.2165 12.6661C27.2885 12.6619 27.3521 12.6098 27.3682 12.5356C27.606 11.4369 28.6992 10.9312 28.7098 10.9261C28.7928 10.8884 28.8301 10.7905 28.7928 10.7074C28.7555 10.6239 28.6572 10.5866 28.5741 10.6243C28.5228 10.6472 27.3182 11.2004 27.0444 12.4656C27.0249 12.5551 27.0817 12.6433 27.1711 12.6627C27.1864 12.6661 27.2016 12.667 27.2165 12.6661Z" fill="#F05B56"/>
<path d="M28.3132 12.0537C28.3437 12.052 28.3742 12.0414 28.4009 12.0219C28.4747 11.9677 28.4908 11.8642 28.4365 11.7905C28.4276 11.7782 28.2114 11.4883 27.7859 11.3276C27.7007 11.295 27.6049 11.3386 27.5727 11.4242C27.5405 11.5099 27.5837 11.6052 27.6693 11.6375C27.9982 11.7617 28.1682 11.9838 28.1695 11.9863C28.2038 12.0334 28.2589 12.0571 28.3132 12.0537Z" fill="#F05B56"/>
<path d="M24.5545 16.8918L24.7648 20.3723C24.7648 20.3723 23.834 22.2072 22.4377 22.4128C21.0427 22.6201 19.6974 21.0467 19.6974 21.0467L19.4795 17.4442L24.5545 16.8918Z" fill="#FBA691"/>
<path d="M24.5546 16.8918L24.6479 18.436C23.7692 19.5381 22.1122 19.9001 19.6152 19.6843L19.48 17.4442L24.5546 16.8918Z" fill="#FD857D"/>
<path d="M15.4017 10.8045C15.428 11.0054 15.4572 11.208 15.4899 11.4136C15.5734 11.9286 15.6755 12.4572 15.8023 12.9815C15.8069 13.0002 15.8103 13.018 15.815 13.0341C16.4372 15.5722 17.6406 18.0316 19.9537 18.7038C25.1936 20.2251 26.7594 15.7168 27.3372 13.1083C27.4008 12.8187 27.455 12.4974 27.4987 12.1558C27.5004 12.1427 27.5016 12.1283 27.5042 12.1126C27.5525 11.7285 27.5898 11.3208 27.6165 10.9011C27.6369 10.5904 27.6513 10.2755 27.6619 9.95802C27.6903 9.18741 27.6924 8.41596 27.6835 7.73183C27.664 6.169 26.6441 4.79141 25.1504 4.32006C22.9976 3.63847 19.7651 3.19086 16.842 5.08982C15.762 5.79048 15.1321 7.00701 15.1847 8.29304C15.2144 9.00261 15.2775 9.87282 15.4017 10.8045Z" fill="#FBA691"/>
<path d="M19.4945 10.8992C19.517 11.2705 19.3437 11.5833 19.1076 11.5977C18.8715 11.6121 18.6616 11.3222 18.6392 10.9509C18.6167 10.5795 18.7901 10.2667 19.0262 10.2523C19.2623 10.2383 19.4721 10.5278 19.4945 10.8992Z" fill="#2A365C"/>
<path d="M24.7382 10.5824C24.7607 10.9537 24.5873 11.2665 24.3512 11.281C24.1151 11.2954 23.9053 11.0054 23.8828 10.6341C23.8604 10.2628 24.0337 9.94999 24.2698 9.93557C24.5059 9.92116 24.7157 10.2107 24.7382 10.5824Z" fill="#2A365C"/>
<path d="M25.34 8.2494C25.34 8.2494 23.9586 7.79756 22.9468 8.30917L23.0858 8.88056C23.0858 8.88056 24.6029 8.65929 25.39 8.92422C25.4447 8.69787 25.4413 8.47236 25.34 8.2494Z" fill="#2A365C"/>
<path d="M17.3382 8.73267C17.3382 8.73267 18.6552 8.11805 19.7212 8.50378L19.6522 9.08788C19.6522 9.08788 18.1194 9.051 17.37 9.40875C17.2882 9.19088 17.2645 8.96665 17.3382 8.73267Z" fill="#2A365C"/>
<path d="M21.8695 13.6118C21.5949 13.6623 21.3024 13.6059 21.257 13.5962C21.1676 13.5775 21.1104 13.4898 21.129 13.4003C21.1472 13.3109 21.2354 13.2533 21.3248 13.2719C21.4829 13.3045 21.8534 13.3334 21.9895 13.2134C22.0158 13.1901 22.0497 13.1477 22.0416 13.0468C21.9958 12.467 21.4893 10.5892 21.4838 10.5701C21.4601 10.482 21.5122 10.3908 21.6004 10.3671C21.689 10.3429 21.7797 10.3955 21.8034 10.4837C21.8246 10.5621 22.3235 12.4106 22.3714 13.0205C22.3896 13.2503 22.2926 13.3872 22.2078 13.4618C22.1154 13.5436 21.9941 13.5885 21.8695 13.6118Z" fill="#FD857D"/>
<path d="M19.6694 14.7402C19.8458 15.412 20.3701 16.6353 21.8833 16.5442C23.4 16.4526 23.7564 15.284 23.8548 14.4875L19.6694 14.7402Z" fill="#FEFDFF"/>
<path d="M27.6547 10.1594L26.9052 10.2047C26.9425 9.44728 26.614 8.55503 26.3521 7.96287C25.757 6.62004 26.8103 5.94862 25.8875 5.31408C24.9647 4.67785 22.789 5.10596 21.2605 5.14877C19.7227 5.19201 17.2574 5.3624 16.6674 5.53746C16.0757 5.71083 16.4648 6.68744 16.7314 7.44617C16.9993 8.20321 16.0939 9.11454 15.9816 9.92245C15.9494 10.1543 15.9794 10.4943 16.0388 10.8609L15.4144 10.8986C15.2818 9.93134 15.2156 9.02722 15.1847 8.29265C15.1321 7.00661 15.762 5.7901 16.8416 5.08943C19.7651 3.19047 22.998 3.63723 25.15 4.31882C26.6437 4.79102 27.6644 6.16819 27.6843 7.73144C27.6932 8.47491 27.689 9.32097 27.6547 10.1594Z" fill="#2A365C"/>
<path d="M22.3611 10.989C22.2954 9.9026 23.1257 8.96583 24.2121 8.90013C25.2985 8.83443 26.2353 9.6648 26.301 10.7512C26.3667 11.8376 25.5363 12.7743 24.4499 12.84C23.364 12.9057 22.4268 12.0754 22.3611 10.989ZM22.6684 10.9703C22.7239 11.8872 23.5149 12.5883 24.4317 12.5327C25.3485 12.4772 26.0496 11.6863 25.9941 10.7694C25.9386 9.85258 25.1476 9.15149 24.2308 9.20701C23.3135 9.26254 22.6129 10.0535 22.6684 10.9703Z" fill="#FEFDFF"/>
<path d="M16.9773 11.3145C16.9116 10.2282 17.7419 9.29139 18.8279 9.22569C19.9143 9.15999 20.8511 9.99036 20.9168 11.0768C20.9825 12.1631 20.1521 13.0999 19.0657 13.1656C17.9802 13.2309 17.043 12.4005 16.9773 11.3145ZM17.2846 11.2959C17.3401 12.2127 18.1311 12.9138 19.0479 12.8583C19.9648 12.8028 20.6658 12.0118 20.6103 11.095C20.5548 10.1781 19.7638 9.47705 18.847 9.53258C17.9302 9.5881 17.2291 10.3791 17.2846 11.2959Z" fill="#FEFDFF"/>
<path d="M25.9302 10.1365C25.9692 10.134 26.0074 10.117 26.0358 10.0857C26.0443 10.0763 26.8865 9.15442 28.0772 9.35703C28.1607 9.37144 28.2404 9.31507 28.2548 9.23114C28.2692 9.14721 28.2128 9.06795 28.1289 9.05353C26.7674 8.82167 25.845 9.83728 25.8065 9.88051C25.7501 9.9441 25.7556 10.0412 25.8192 10.0975C25.8505 10.1264 25.8908 10.1391 25.9302 10.1365Z" fill="#FEFDFF"/>
<path d="M17.2358 10.6621C17.2858 10.6592 17.3337 10.6316 17.3604 10.5846C17.4024 10.5108 17.377 10.4171 17.3032 10.3747C17.2422 10.34 15.7942 9.52488 14.6196 9.79192C14.537 9.81057 14.4849 9.89323 14.5039 9.97588C14.5226 10.0585 14.6044 10.1107 14.6879 10.0916C15.7446 9.85126 17.1366 10.6337 17.151 10.6418C17.1773 10.6575 17.207 10.6638 17.2358 10.6621Z" fill="#FEFDFF"/>
<path d="M20.7819 10.6406C20.7848 10.6355 21.1201 10.12 21.6 10.0912C22.0747 10.0624 22.4341 10.535 22.438 10.5401L22.6851 10.3566C22.6664 10.3316 22.2248 9.74534 21.5817 9.78433C20.9434 9.82291 20.5394 10.4494 20.5225 10.4761L20.7819 10.6406Z" fill="#FEFDFF"/>
<path d="M12.3979 66.7865L10.6558 69.1644C10.6558 69.1644 9.64696 68.5328 8.27785 67.435C8.27361 67.4308 8.27361 67.4308 8.26937 67.4265C6.18391 65.7607 3.26341 63.0182 1.77137 59.7925C-0.0936785 55.7615 0.453126 52.4977 0.453126 52.4977C0.698973 50.107 2.30122 45.2494 3.57708 41.6422C4.04334 40.3325 4.46722 39.1922 4.76394 38.3911L8.65933 39.2855L10.3252 40.3113L9.68511 42.0025L5.38703 53.4048C5.76428 56.7491 7.45977 60.0384 9.09169 62.5138C10.7787 65.0825 12.3979 66.7865 12.3979 66.7865Z" fill="#FBA691"/>
<path d="M12.398 66.7865L10.6558 69.1644C10.6558 69.1644 9.64702 68.5328 8.2779 67.435C8.27366 67.4307 8.27367 67.4307 8.26943 67.4265C7.96848 65.6293 8.15075 63.0903 9.09175 62.5138C10.7788 65.0825 12.398 66.7865 12.398 66.7865Z" fill="#FD857D"/>
<path d="M11.4675 64.0427C11.8181 64.0656 13.6874 64.1584 13.4852 63.5188C13.2622 62.8135 11.4277 61.9874 11.4277 61.9874C11.4277 61.9874 11.4171 61.9513 11.4349 61.9039L11.415 61.7534L11.334 60.2372C10.9797 60.2397 10.6541 60.3088 10.4778 60.3635C9.67369 60.6123 9.7839 62.4515 9.7839 62.4515C9.7839 62.4515 8.77 62.8139 8.80687 63.5565C8.84375 64.2992 9.66056 64.4107 9.66056 64.4107C9.66056 64.4107 8.54491 64.9676 8.80559 65.5988C9.0667 66.2299 9.91234 66.4156 9.91234 66.4156C9.91234 66.4156 8.95523 67.0467 9.28967 67.4922C9.62368 67.9377 10.4036 68.1607 10.4036 68.1607C10.4036 68.1607 9.736 69.0644 10.4146 69.5569C11.0928 70.0495 12.091 69.9426 12.7324 69.7197C13.3741 69.4971 13.2626 68.6803 12.0003 68.0861C12.0003 68.0861 13.1143 68.1975 13.6708 67.2693C14.1354 66.4953 12.9507 66.1608 11.9402 66.0277C12.7341 66.0811 14.104 66.0587 14.3393 65.3012C14.6474 64.3076 11.8965 64.0732 11.4675 64.0427Z" fill="#FBA691"/>
<path d="M10.3252 40.3113L9.68518 42.0025C8.39237 42.0831 6.07801 42.1212 3.57715 41.6422C4.04341 40.3325 4.46729 39.1922 4.76401 38.3911L8.6594 39.2855L10.3252 40.3113Z" fill="#FD857D"/>
<path d="M10.861 26.5599C10.861 26.5599 6.1195 31.3167 2.65771 39.6132C5.37094 40.4906 7.9392 41.1115 10.3243 41.4083C10.6389 40.8555 11.8829 37.3077 12.8201 34.7479L10.861 26.5599Z" fill="#F7D188"/>
</svg>
