<svg width="41" height="14" viewBox="0 0 41 14" fill="none" xmlns="http://www.w3.org/2000/svg">
<path d="M39.7419 2.81077H1.92718C1.24008 2.81077 0.683105 2.2538 0.683105 1.5667C0.683105 0.879602 1.24008 0.322632 1.92718 0.322632H39.7419C40.429 0.322632 40.986 0.879602 40.986 1.5667C40.986 2.25338 40.429 2.81077 39.7419 2.81077Z" fill="#CAE6FE"/>
<path d="M39.7419 8.2008H1.92718C1.24008 8.2008 0.683105 7.64382 0.683105 6.95672C0.683105 6.26962 1.24008 5.71265 1.92718 5.71265H39.7419C40.429 5.71265 40.986 6.26962 40.986 6.95672C40.986 7.64382 40.429 8.2008 39.7419 8.2008Z" fill="#CAE6FE"/>
<path d="M39.7419 13.5912H1.92718C1.24008 13.5912 0.683105 13.0342 0.683105 12.3471C0.683105 11.66 1.24008 11.103 1.92718 11.103H39.7419C40.429 11.103 40.986 11.66 40.986 12.3471C40.986 13.0342 40.429 13.5912 39.7419 13.5912Z" fill="#CAE6FE"/>
</svg>
