<svg width="49" height="10" viewBox="0 0 49 10" fill="none" xmlns="http://www.w3.org/2000/svg">
<path d="M0.710938 1.86908L4.10871 7.03865C5.0565 8.48067 6.66637 9.34919 8.39239 9.34919H41.2278C42.9534 9.34919 44.5637 8.48067 45.5111 7.03865L48.9089 1.86908C48.9089 1.3333 48.4706 0.894165 47.934 0.894165H1.68585C1.1505 0.894165 0.710938 1.33372 0.710938 1.86908Z" fill="#2A365C"/>
<path d="M35.9659 5.60676H7.83084C7.25904 5.60676 6.7915 5.1388 6.7915 4.56742C6.7915 3.99561 7.25946 3.52808 7.83084 3.52808H35.9659C36.5377 3.52808 37.0053 3.99604 37.0053 4.56742C37.0053 5.1388 36.5373 5.60676 35.9659 5.60676Z" fill="#445279"/>
<path d="M42.5208 4.49795C42.5208 5.18675 41.9621 5.74541 41.2733 5.74541C40.5845 5.74541 40.0259 5.18717 40.0259 4.49795C40.0259 3.80916 40.5841 3.25049 41.2733 3.25049C41.9626 3.25049 42.5208 3.80916 42.5208 4.49795Z" fill="#445279"/>
</svg>
