<svg width="46" height="85" viewBox="0 0 46 85" fill="none" xmlns="http://www.w3.org/2000/svg">
<path d="M7.29419 60.258L12.4451 61.9819C13.0966 62.1993 13.8011 61.848 14.0181 61.1969L18.3844 48.1487L20.1906 42.7528L12.6821 40.2393L11.6122 43.4361L6.5096 58.6846C6.2913 59.3348 6.64269 60.0393 7.29419 60.258Z" fill="#F8B32E"/>
<path d="M11.6128 43.4361C13.107 45.0964 15.367 47.0526 18.385 48.1487L20.1912 42.7528L12.6827 40.2393L11.6128 43.4361Z" fill="#AB8336"/>
<path d="M12.2004 61.8997L11.6981 63.4015L5.22977 82.7314C4.79869 84.0192 3.40626 84.7131 2.11853 84.2828C0.83207 83.8513 0.136915 82.4589 0.56842 81.1716L6.42637 63.6664L7.53904 60.3398L12.2004 61.8997Z" fill="#2A365C"/>
<path d="M12.2003 61.8997L11.698 63.4015L6.42627 63.6664L7.53894 60.3398L12.2003 61.8997Z" fill="#0F0428"/>
<path d="M1.72165 15.2963C-2.24031 26.9389 3.98514 39.5899 15.629 43.5527C27.2724 47.515 39.9229 41.2879 43.8853 29.6453C47.8477 18.0019 41.6218 5.35053 29.9784 1.38773C18.3346 -2.57423 5.68403 3.65292 1.72165 15.2963ZM4.95454 16.3967C8.304 6.55433 19.0357 1.27159 28.878 4.62105C38.7204 7.9705 44.0014 18.703 40.652 28.5449C37.303 38.386 26.5713 43.6688 16.7289 40.3193C6.88698 36.9703 1.60551 26.2378 4.95454 16.3967Z" fill="#445279"/>
<path opacity="0.5" d="M3.99627 23.7942C4.72576 34.1639 13.756 42.0081 24.1269 41.2786C25.0162 41.2163 25.8881 41.0925 26.7371 40.9115C28.937 40.4436 30.9865 39.5954 32.8189 38.4416C34.7297 37.2386 36.4044 35.7046 37.7664 33.9265C39.909 31.1336 41.2803 27.7379 41.5914 24.0765C41.6732 23.1168 41.6813 22.1381 41.6117 21.1479C40.8823 10.777 31.852 2.93277 21.4811 3.66226C20.4905 3.73178 19.5228 3.87717 18.5831 4.0925C15.0009 4.91312 11.8299 6.74764 9.36549 9.25995C7.79546 10.8571 6.51112 12.7302 5.58877 14.7907C4.70329 16.7663 4.15014 18.9145 3.995 21.1581C3.93396 22.0245 3.93354 22.9049 3.99627 23.7942Z" fill="#FEFDFF"/>
<path opacity="0.5" d="M9.36475 9.25997L37.766 33.9265C39.9087 31.1336 41.28 27.7379 41.5911 24.0765L18.5823 4.09253C15.0002 4.91315 11.8292 6.74767 9.36475 9.25997Z" fill="#FEFDFF"/>
<path opacity="0.5" d="M3.99414 21.1581L26.7371 40.9115C28.937 40.4436 30.9865 39.5954 32.8189 38.4416L5.58833 14.7906C4.70244 16.7663 4.14928 18.9145 3.99414 21.1581Z" fill="#FEFDFF"/>
</svg>
