<svg width="66" height="49" viewBox="0 0 66 49" fill="none" xmlns="http://www.w3.org/2000/svg">
<path d="M62.5662 18.774H3.38818V45.6608H62.5662V18.774Z" fill="#360B92"/>
<path d="M62.5662 18.774H3.38818V20.9091H62.5662V18.774Z" fill="#45A9EA"/>
<path d="M62.5662 17.1748H3.38818L7.99528 6.2677H57.9586L62.5662 17.1748Z" fill="#445279"/>
<path d="M64.4439 17.1011H0.759277V18.7741H64.4439V17.1011Z" fill="#2A365C"/>
<path d="M45.4383 45.6609H20.5166V24.8054L33.3121 17.8522L45.4383 24.1221V45.6609Z" fill="#360B92"/>
<path d="M21.1879 26.7064H19.0923V45.6608H21.1879V26.7064Z" fill="#45A9EA"/>
<path d="M46.8901 26.7064H44.7944V45.6608H46.8901V26.7064Z" fill="#45A9EA"/>
<path d="M37.2402 31.6248H28.7144V45.6966H37.2402V31.6248Z" fill="#2A365C"/>
<path d="M36.3817 32.4827H29.5718V45.6965H36.3817V32.4827Z" fill="#445279"/>
<path d="M35.9458 39.4901C35.9458 39.8851 35.6258 40.2052 35.2307 40.2052C34.8357 40.2052 34.5156 39.8851 34.5156 39.4901C34.5156 39.095 34.8357 38.775 35.2307 38.775C35.6258 38.775 35.9458 39.095 35.9458 39.4901Z" fill="#2A365C"/>
<path d="M38.2405 31.6247H27.714C27.363 31.6247 27.0786 31.3403 27.0786 30.9893V30.5743H38.8763V30.9893C38.8759 31.3403 38.5915 31.6247 38.2405 31.6247Z" fill="#2A365C"/>
<path d="M32.6011 33.4524H30.5V37.7301H32.6011V33.4524Z" fill="#CAE6FE"/>
<path d="M32.6011 33.6215V34.8871L30.5 36.9874V35.7218L32.6011 33.6215Z" fill="#FEFDFF"/>
<path opacity="0.2" d="M32.6011 33.4524H30.5V34.0573H32.6011V33.4524Z" fill="black"/>
<path d="M35.5665 33.4524H33.4653V37.7301H35.5665V33.4524Z" fill="#CAE6FE"/>
<path d="M35.5665 33.6215V34.8871L33.4653 36.9874V35.7218L35.5665 33.6215Z" fill="#FEFDFF"/>
<path opacity="0.2" d="M35.5665 33.4524H33.4653V34.0573H35.5665V33.4524Z" fill="black"/>
<path d="M64.4439 17.1129H0.759277V16.2117C0.759277 15.4496 1.37686 14.832 2.13899 14.832H63.0646C63.8267 14.832 64.4443 15.4496 64.4443 16.2117V17.1129H64.4439Z" fill="#2A365C"/>
<path d="M51.728 26.7256L48.3154 26.7162L44.7667 26.7065L32.9775 18.7589L21.1879 26.7065L17.6396 26.7162L14.2266 26.7256L32.9775 14.0861L51.728 26.7256Z" fill="#445279"/>
<path d="M48.3155 26.7163L44.7668 26.7065L32.9775 18.7589L21.1879 26.7065L17.6396 26.7163L32.9775 16.3767L48.3155 26.7163Z" fill="#2A365C"/>
<path d="M14.3198 30.3602H9.29395V39.7393H14.3198V30.3602Z" fill="#CAE6FE"/>
<path d="M14.3195 30.3602H12.5481L9.30713 33.6012V36.2495L14.3195 31.2372V30.3602Z" fill="#FEFDFF"/>
<path d="M14.3195 34.3264L9.30713 39.3392V39.7393H10.2299L14.3195 35.6502V34.3264Z" fill="#FEFDFF"/>
<path d="M8.60645 29.6736V40.4256H14.319V29.6736H8.60645ZM9.29355 30.3598H13.6196V34.6952H9.29355V30.3598ZM9.29355 39.7389V35.4035H13.6196V39.7389H9.29355Z" fill="#445279"/>
<path opacity="0.2" d="M14.3186 29.7325H8.60645V30.8397H14.3186V29.7325Z" fill="black"/>
<path d="M14.9009 29.6736H8.02561C7.73525 29.6736 7.5 29.4384 7.5 29.148V28.8047H15.4265V29.148C15.4265 29.4384 15.1908 29.6736 14.9009 29.6736Z" fill="#2A365C"/>
<path d="M14.319 40.4257H8.60645V41.526H14.319V40.4257Z" fill="#45A9EA"/>
<path d="M58.5474 30.3602H53.5215V39.7393H58.5474V30.3602Z" fill="#CAE6FE"/>
<path d="M58.547 30.3602H56.776L53.5347 33.6012V36.2495L58.547 31.2372V30.3602Z" fill="#FEFDFF"/>
<path d="M58.547 34.3264L53.5347 39.3392V39.7393H54.4574L58.547 35.6502V34.3264Z" fill="#FEFDFF"/>
<path d="M52.835 29.6736V40.4256H58.5475V29.6736H52.835ZM53.5221 30.3598H57.8481V34.6952H53.5221V30.3598ZM53.5221 39.7389V35.4035H57.8481V39.7389H53.5221Z" fill="#445279"/>
<path opacity="0.2" d="M58.5471 29.7325H52.835V30.8397H58.5471V29.7325Z" fill="black"/>
<path d="M59.1284 29.6736H52.2531C51.9628 29.6736 51.7275 29.4384 51.7275 29.148V28.8047H59.654V29.148C59.654 29.4384 59.4183 29.6736 59.1284 29.6736Z" fill="#2A365C"/>
<path d="M58.5475 40.4257H52.835V41.526H58.5475V40.4257Z" fill="#45A9EA"/>
<path d="M56.6857 8.43657H9.59362C9.42789 8.43657 9.29395 8.30221 9.29395 8.13689V7.74524C9.29395 7.5795 9.42831 7.44556 9.59362 7.44556H56.6857C56.851 7.44556 56.9854 7.57993 56.9854 7.74524V8.13689C56.9854 8.30263 56.851 8.43657 56.6857 8.43657Z" fill="#2A365C"/>
<path d="M57.3156 11.0427H8.59802C8.43228 11.0427 8.29834 10.9083 8.29834 10.743V10.3513C8.29834 10.1856 8.43271 10.0516 8.59802 10.0516H57.316C57.4818 10.0516 57.6157 10.186 57.6157 10.3513V10.743C57.6157 10.9083 57.4814 11.0427 57.3156 11.0427Z" fill="#2A365C"/>
<path d="M59.3547 13.6486H7.11169C6.94596 13.6486 6.81201 13.5142 6.81201 13.3489V12.9573C6.81201 12.792 6.94638 12.6576 7.11169 12.6576H59.3547C59.5204 12.6576 59.6543 12.792 59.6543 12.9573V13.3489C59.6548 13.5142 59.5204 13.6486 59.3547 13.6486Z" fill="#2A365C"/>
<path d="M18.0716 2.82373H11.4634V10.278H18.0716V2.82373Z" fill="#45A9EA"/>
<path d="M18.0716 2.82373H11.4634V4.7388H18.0716V2.82373Z" fill="#45A9EA"/>
<path d="M19.4511 0.301636V1.18711C19.4511 1.31597 19.4359 1.44186 19.407 1.56267C19.2375 2.28495 18.5881 2.82369 17.8145 2.82369H11.7201C10.9461 2.82369 10.2967 2.28495 10.1276 1.56267C10.0988 1.44186 10.0835 1.31597 10.0835 1.18711V0.301636H19.4511Z" fill="#445279"/>
<path d="M19.4074 1.56274C19.2378 2.28503 18.5885 2.82377 17.8149 2.82377H11.7204C10.9464 2.82377 10.2971 2.28503 10.1279 1.56274H19.4074Z" fill="#2A365C"/>
<path d="M63.6626 47.3288H2.21779C1.93931 47.3288 1.71338 47.1028 1.71338 46.8244V46.1657C1.71338 45.8872 1.93931 45.6613 2.21779 45.6613H63.6626C63.9411 45.6613 64.1671 45.8872 64.1671 46.1657V46.8244C64.1671 47.1028 63.9416 47.3288 63.6626 47.3288Z" fill="#445279"/>
<path d="M65.2248 48.9696H0.657244C0.378758 48.9696 0.152832 48.7437 0.152832 48.4652V47.8065C0.152832 47.5281 0.378758 47.3021 0.657244 47.3021H65.2248C65.5033 47.3021 65.7292 47.5281 65.7292 47.8065V48.4652C65.7292 48.7441 65.5033 48.9696 65.2248 48.9696Z" fill="#2A365C"/>
<path d="M21.188 26.7259V29.259L33.1396 21.5661L44.7944 29.259L44.7669 26.7259L32.9776 18.7787L21.188 26.7259Z" fill="#45A9EA"/>
</svg>
