<svg width="24" height="14" viewBox="0 0 24 14" fill="none" xmlns="http://www.w3.org/2000/svg">
<path d="M21.88 0.0383301H1.29534C0.60824 0.0383301 0.0512695 0.5953 0.0512695 1.2824C0.0512695 1.9695 0.60824 2.52647 1.29534 2.52647H21.88C22.5671 2.52647 23.124 1.9695 23.124 1.2824C23.124 0.5953 22.5671 0.0383301 21.88 0.0383301Z" fill="#CAE6FE"/>
<path d="M21.88 5.42871H1.29534C0.60824 5.42871 0.0512695 5.98568 0.0512695 6.67278C0.0512695 7.35988 0.60824 7.91685 1.29534 7.91685H21.88C22.5671 7.91685 23.124 7.35988 23.124 6.67278C23.124 5.98568 22.5671 5.42871 21.88 5.42871Z" fill="#CAE6FE"/>
<path d="M21.88 10.8187H1.29534C0.60824 10.8187 0.0512695 11.3757 0.0512695 12.0628C0.0512695 12.7499 0.60824 13.3069 1.29534 13.3069H21.88C22.5671 13.3069 23.124 12.7499 23.124 12.0628C23.124 11.3757 22.5671 10.8187 21.88 10.8187Z" fill="#CAE6FE"/>
</svg>
