<svg width="25" height="25" viewBox="0 0 25 25" fill="none" xmlns="http://www.w3.org/2000/svg">
<path d="M6.27778 16.5C5.16596 17.1327 4.5 17.9385 4.5 18.8158C4.5 20.8505 8.08172 22.5 12.5 22.5C16.9183 22.5 20.5 20.8505 20.5 18.8158C20.5 17.9385 19.834 17.1327 18.7222 16.5" stroke="#3D0DA6" stroke-width="1.5" stroke-linecap="round"/>
<path d="M13.4981 7.5H11.5019C8.63196 7.5 6.69701 10.5691 7.82753 13.328C7.98501 13.7124 8.34633 13.9615 8.74612 13.9615H9.4491C9.68605 13.9615 9.89259 14.1302 9.95006 14.3706L10.8551 18.1567C11.0438 18.9462 11.722 19.5 12.5 19.5C13.278 19.5 13.9562 18.9462 14.1449 18.1567L15.0499 14.3706C15.1074 14.1302 15.314 13.9615 15.5509 13.9615H16.2539C16.6537 13.9615 17.015 13.7124 17.1725 13.328C18.303 10.5691 16.368 7.5 13.4981 7.5Z" stroke="#3D0DA6" stroke-width="1.5"/>
<path d="M15 5C15 6.38071 13.8807 7.5 12.5 7.5C11.1193 7.5 10 6.38071 10 5C10 3.61929 11.1193 2.5 12.5 2.5C13.8807 2.5 15 3.61929 15 5Z" stroke="#3D0DA6" stroke-width="1.5"/>
</svg>
