<svg width="155" height="169" viewBox="0 0 155 169" fill="none" xmlns="http://www.w3.org/2000/svg">
<path d="M22.5643 39.2961C20.6003 37.8707 19.045 36.7518 16.9115 35.2038C15.6953 44.3081 14.1998 53.5964 13.2328 63.0226C10.2419 92.2821 14.9974 119.365 23.5214 145.253C24.4884 148.18 25.256 150.924 23.5911 153.683C21.9561 156.395 19.9024 156.38 17.8287 155.016C14.2796 152.686 12.156 148.149 10.521 143.107C3.73174 122.262 -0.415555 100.375 0.0330755 76.8476C0.411919 57.2289 2.32607 38.0086 7.62988 19.9533C9.10538 14.9107 10.9099 9.95999 13.0932 5.59176C16.5626 -1.3361 21.1685 -0.385781 23.8005 7.26246C23.9999 7.86022 24.2192 8.6419 24.5682 8.88713C28.3068 11.5541 29.5928 17.0564 31.0982 22.2523C36.4619 40.7369 37.9872 60.5089 39.2135 80.3576C39.8615 90.7494 40.3899 101.156 40.988 111.564C41.0678 113.035 41.2273 114.491 41.4068 116.622C42.4137 115.196 43.0418 114.261 43.6898 113.357C49.2428 105.785 54.7959 98.1983 60.3788 90.688C61.3957 89.3239 62.5422 88.159 63.6688 86.9942C66.6298 83.9441 69.7901 82.6566 73.1399 85.3695C76.5594 88.1437 77.9452 92.9871 77.7758 98.5968C77.5166 107.073 76.8984 115.518 76.4498 123.979C76.1308 129.941 75.8616 135.918 75.5326 141.881C75.3731 144.747 76.1806 146.203 78.005 146.816C82.9998 148.487 87.9746 149.452 93.069 147.705C101.513 144.793 109.678 140.701 117.235 134.186C119.807 131.979 122.11 128.945 124.354 125.971C125.979 123.81 125.919 121.036 124.463 118.583C121.383 113.403 117.754 110.245 112.968 111.073C111.194 111.38 109.329 111.579 107.595 111.104C104.664 110.307 102.75 106.766 102.46 102.505C102.191 98.4896 103.517 94.2745 106.179 92.7418C108.592 91.3471 111.264 90.1822 113.796 90.2588C121.592 90.4734 129.059 87.7912 136.596 85.3542C141.81 83.6683 147.124 82.6566 152.388 81.3998C153.076 81.2312 153.784 81.3845 155 81.3845C152.258 88.5576 149.816 95.1636 147.204 101.601C146.825 102.521 145.659 102.858 144.811 103.134C142.079 104.007 139.328 104.728 136.287 105.601C136.706 107.088 136.985 108.176 137.324 109.234C140.504 119.089 140.096 128.699 135.4 136.884C132.459 142.019 128.88 146.647 125.051 150.142C114.763 159.568 103.557 165.99 91.6434 167.738C85.2729 168.673 78.6132 167.431 72.2825 165.592C65.2639 163.569 61.3559 155.644 60.9272 144.425C60.6081 136.256 60.8673 128.04 60.8673 119.442C60.2592 119.902 59.6909 120.177 59.2523 120.714C52.2337 129.098 45.3547 137.635 40.3301 149.207C38.0371 154.48 34.3982 155.89 30.4901 155.169C27.0705 154.541 24.3488 149.008 25.7745 144.103C30.3605 128.377 28.227 112.238 27.4394 96.3131C26.5621 78.5796 24.7476 60.9687 23.302 43.3118C23.1325 41.6565 22.7039 40.0778 22.5643 39.2961Z" fill="#EEE7FD"/>
</svg>
