<svg width="64" height="78" viewBox="0 0 64 78" fill="none" xmlns="http://www.w3.org/2000/svg">
<path d="M43.1774 52.9418C43.7204 46.3438 43.7994 39.9274 44.836 33.9045C46.2675 25.5965 48.39 17.5458 50.2954 9.43454C50.6508 7.92125 51.3221 6.52898 51.9836 5.24268C54.0568 1.12652 57.0383 -0.250582 59.8322 1.45944C62.5965 3.15433 64.3242 7.39156 63.949 12.4308C63.7121 15.5331 63.2579 18.6959 62.5274 21.6166C58.8351 36.2047 56.6237 51.2015 56.2485 66.9246C56.0412 75.6564 51.7269 78.7586 46.3662 76.1104C42.6443 74.2793 38.4683 73.6134 34.5489 73.8858C26.8583 74.4306 19.2071 76.0952 11.5264 77.1091C9.04838 77.4269 6.48153 77.6236 4.04304 77.0183C0.291509 76.0952 -1.08074 70.7079 0.91349 65.714C2.78925 61.0228 5.90894 59.1463 9.11749 57.7692C19.3947 53.3503 29.899 52.049 40.5316 52.6997C41.4004 52.7299 42.279 52.851 43.1774 52.9418Z" fill="#EEE7FD"/>
</svg>
