<svg width="40" height="28" viewBox="0 0 40 28" fill="none" xmlns="http://www.w3.org/2000/svg">
<g clip-path="url(#clip0_118_739)">
<path d="M15.177 9.50057L9.94239 18.5463H6.51852L3.95062 11.3145C3.78601 10.861 3.65432 10.7178 3.19342 10.5269C2.17914 10.173 1.10566 9.91622 0 9.76311L0.0658436 9.50057H5.56379C6.30694 9.503 6.93632 9.89845 7.04527 10.4314L8.39506 15.6584L11.7531 9.50057H15.177ZM28.5761 15.5868C28.5761 13.2 24.0329 13.0568 24.0658 12.0067C24.0658 11.6725 24.4938 11.3384 25.4486 11.2429C26.5439 11.1687 27.6467 11.3089 28.642 11.6486L29.2016 9.73925C28.235 9.47016 27.2083 9.33261 26.1728 9.3335C22.9794 9.3335 20.7407 10.5746 20.7078 12.3169C20.6749 13.6296 22.321 14.3457 23.5391 14.7753C24.7572 15.2049 25.2181 15.5152 25.2181 15.897C25.2181 16.4937 24.1975 16.7801 23.2757 16.7801C22.1173 16.8033 20.9708 16.6058 19.9506 16.2073L19.358 18.1883C20.498 18.52 21.7183 18.6824 22.9465 18.6657C26.3374 18.6895 28.5432 17.4723 28.5761 15.5868ZM37.0041 18.5463H40L37.3992 9.50057H34.6337C34.0268 9.4953 33.4777 9.76069 33.251 10.1689L28.3786 18.5463H31.7695L32.428 17.1859H36.5761L37.0041 18.5463ZM33.3827 15.3481L35.0947 11.9589L36.0823 15.3481H33.3827ZM19.786 9.50057L17.1193 18.5463H13.893L16.5597 9.50057H19.786Z" fill="#1A1F71"/>
</g>
<defs>
<clipPath id="clip0_118_739">
<rect width="40" height="28" fill="white"/>
</clipPath>
</defs>
</svg>
